<?xml version="1.0" encoding="iso-8859-1"?>
<!-- Generator: Adobe Illustrator 16.0.0, SVG Export Plug-In . SVG Version: 6.00 Build 0)  -->
<!DOCTYPE svg PUBLIC "-//W3C//DTD SVG 1.1//EN" "http://www.w3.org/Graphics/SVG/1.1/DTD/svg11.dtd">
<svg version="1.1" id="Capa_1" xmlns="http://www.w3.org/2000/svg" xmlns:xlink="http://www.w3.org/1999/xlink" x="0px" y="0px"
	 width="541.681px" height="541.68px" viewBox="0 0 541.681 541.68" style="enable-background:new 0 0 541.681 541.68;"
	 xml:space="preserve">
<g>
	<path d="M214.646,385.712l54.353,26.558l-15.809,32.367l-29.027-14.186c-3.893-1.897-8.583-0.29-10.483,3.6
		s-0.292,8.582,3.6,10.474l29.037,14.186l-13.039,26.682l-29.028-14.174c-3.886-1.903-8.583-0.284-10.477,3.6
		c-1.9,3.889-0.29,8.582,3.6,10.479l29.025,14.186l-8.57,17.538l-54.353-26.552L214.646,385.712z M427.056,132.806v103.391
		c0,9.109-7.383,16.5-16.497,16.5h-40.287v32.598l-17.059,17.053c-6.438,6.443-6.438,16.894,0,23.336l17.059,17.053v7.441
		l-14.311,14.316c-6.437,6.437-6.437,16.881,0,23.323l14.311,14.304v14.051l-17.059,17.053c-6.438,6.442-6.438,16.893,0,23.335
		l17.059,17.053v30.127l-29.141,37.941h-1.938l-29.141-37.941V252.697h-40.281c-9.112,0-16.5-7.382-16.5-16.5V207.66
		c-10.619-1.817-20.664-5.446-29.864-10.58c2.24,9.835,9.356,20.041,19.961,28.277v12.891c0,14.558,11.845,26.397,26.395,26.397
		h30.384v13.645c-12.962,4.858-27.139,6.431-41.156,4.12L157.809,489.536c-4.001,8.187-13.878,11.585-22.068,7.583l-11.857-5.798
		c-8.189-3.99-11.579-13.879-7.581-22.065l101.183-207.122c-23.465-21.687-32.199-55.945-20.767-86.791
		c-16.225-18.634-26.158-43.524-26.158-70.843C170.561,46.878,214.72,0,268.999,0c54.281,0,98.44,46.878,98.44,104.5
		c0,3.992-0.236,7.923-0.644,11.801h43.763C419.667,116.312,427.056,123.704,427.056,132.806z M269.771,116.312h80.41
		c0.484-3.86,0.756-7.793,0.756-11.801c0-48.524-36.753-88-81.943-88c-45.182,0-81.938,39.475-81.938,88
		c0,20.67,6.682,39.676,17.83,54.71c9.697-14.818,23.661-25.603,39.469-31.401c-0.629,2.252-0.987,4.604-0.987,7.051v31.599
		c-7.924,2.119-14.23,6.38-17.747,12.655c8.328,5.606,17.67,9.655,27.65,11.745v-58.059
		C253.276,123.704,260.659,116.312,269.771,116.312z M284.068,190.998c20.842-4.176,38.935-16.846,51.021-34.537h-34.519
		c-9.108,0-16.503,7.388-16.503,16.5V190.998z M326.963,255.995h-7.702V486.97h7.696V255.995H326.963z M394.605,172.96
		c0-9.111-7.389-16.5-16.497-16.5h-23.749c-14.269,26.312-38.999,45.43-68.128,50.916c2.819,5.033,8.146,8.473,14.334,8.473h77.543
		c9.108,0,16.497-7.385,16.497-16.494V172.96z"/>
</g>
<g>
</g>
<g>
</g>
<g>
</g>
<g>
</g>
<g>
</g>
<g>
</g>
<g>
</g>
<g>
</g>
<g>
</g>
<g>
</g>
<g>
</g>
<g>
</g>
<g>
</g>
<g>
</g>
<g>
</g>
</svg>
